<svg width="33" height="30" viewBox="0 0 33 30" fill="#ffffff" xmlns="http://www.w3.org/2000/svg">
<path d="M16.5 23.75C17.764 23.75 19.0156 23.5237 20.1833 23.0839C21.3511 22.6442 22.4121 21.9997 23.3059 21.1872C24.1997 20.3747 24.9086 19.4101 25.3923 18.3485C25.876 17.2869 26.125 16.1491 26.125 15C26.125 13.8509 25.876 12.7131 25.3923 11.6515C24.9086 10.5899 24.1997 9.62533 23.3059 8.81282C22.4121 8.0003 21.3511 7.35578 20.1833 6.91605C19.0156 6.47633 17.764 6.25 16.5 6.25C13.9473 6.25 11.4991 7.17187 9.6941 8.81282C7.88906 10.4538 6.875 12.6794 6.875 15C6.875 17.3206 7.88906 19.5462 9.6941 21.1872C11.4991 22.8281 13.9473 23.75 16.5 23.75ZM16.5 28.7C15.7437 28.7 15.125 28.1875 15.125 27.5V27.4C15.125 26.7125 15.7437 26.15 16.5 26.15C17.2563 26.15 17.875 26.7125 17.875 27.4C17.875 28.0875 17.2563 28.7 16.5 28.7ZM26.3175 25.175C25.96 25.175 25.6163 25.05 25.3413 24.8125L25.1625 24.65C25.0352 24.5343 24.9342 24.3969 24.8653 24.2457C24.7964 24.0945 24.761 23.9324 24.761 23.7687C24.761 23.6051 24.7964 23.443 24.8653 23.2918C24.9342 23.1406 25.0352 23.0032 25.1625 22.8875C25.2898 22.7718 25.4409 22.68 25.6073 22.6173C25.7736 22.5547 25.9518 22.5225 26.1319 22.5225C26.3119 22.5225 26.4902 22.5547 26.6565 22.6173C26.8228 22.68 26.9739 22.7718 27.1012 22.8875L27.28 23.05C27.471 23.2238 27.6012 23.4451 27.6542 23.6861C27.7072 23.927 27.6805 24.1768 27.5776 24.404C27.4747 24.6313 27.3001 24.8257 27.0759 24.9629C26.8517 25.1001 26.5878 25.1739 26.3175 25.175ZM6.6825 25.175C6.325 25.175 5.98125 25.05 5.70625 24.8125C5.57878 24.6969 5.47765 24.5595 5.40866 24.4083C5.33966 24.2571 5.30414 24.095 5.30414 23.9313C5.30414 23.7675 5.33966 23.6054 5.40866 23.4542C5.47765 23.303 5.57878 23.1656 5.70625 23.05L5.885 22.8875C6.0123 22.7718 6.16343 22.68 6.32975 22.6173C6.49608 22.5547 6.67435 22.5225 6.85438 22.5225C7.0344 22.5225 7.21267 22.5547 7.379 22.6173C7.54532 22.68 7.69645 22.7718 7.82375 22.8875C7.95105 23.0032 8.05203 23.1406 8.12092 23.2918C8.18982 23.443 8.22528 23.6051 8.22528 23.7687C8.22528 23.9324 8.18982 24.0945 8.12092 24.2457C8.05203 24.3969 7.95105 24.5343 7.82375 24.65L7.645 24.8125C7.38375 25.05 7.02625 25.175 6.6825 25.175ZM30.25 16.25H30.14C29.3838 16.25 28.765 15.6875 28.765 15C28.765 14.3125 29.3838 13.75 30.14 13.75C30.8962 13.75 31.57 14.3125 31.57 15C31.57 15.6875 31.0063 16.25 30.25 16.25ZM2.86 16.25H2.75C1.99375 16.25 1.375 15.6875 1.375 15C1.375 14.3125 1.99375 13.75 2.75 13.75C3.50625 13.75 4.18 14.3125 4.18 15C4.18 15.6875 3.61625 16.25 2.86 16.25ZM26.1388 7.4875C25.7812 7.4875 25.4375 7.3625 25.1625 7.125C25.035 7.00936 24.9339 6.872 24.8649 6.72078C24.7959 6.56956 24.7604 6.40746 24.7604 6.24375C24.7604 6.08004 24.7959 5.91794 24.8649 5.76672C24.9339 5.6155 25.035 5.47814 25.1625 5.3625L25.3413 5.2C25.4685 5.08427 25.6197 4.99247 25.786 4.92984C25.9523 4.86721 26.1306 4.83497 26.3106 4.83497C26.4907 4.83497 26.6689 4.86721 26.8352 4.92984C27.0016 4.99247 27.1527 5.08427 27.28 5.2C27.4073 5.31573 27.5083 5.45312 27.5772 5.60432C27.6461 5.75553 27.6815 5.91759 27.6815 6.08125C27.6815 6.24491 27.6461 6.40697 27.5772 6.55818C27.5083 6.70938 27.4073 6.84677 27.28 6.9625L27.1012 7.125C26.84 7.3625 26.4963 7.4875 26.1388 7.4875ZM6.86125 7.4875C6.50375 7.4875 6.16 7.3625 5.885 7.125L5.70625 6.95C5.57895 6.83427 5.47797 6.69688 5.40908 6.54568C5.34018 6.39447 5.30472 6.23241 5.30472 6.06875C5.30472 5.90509 5.34018 5.74303 5.40908 5.59182C5.47797 5.44062 5.57895 5.30323 5.70625 5.1875C5.83355 5.07177 5.98468 4.97997 6.151 4.91734C6.31733 4.85471 6.4956 4.82247 6.67562 4.82247C6.85565 4.82247 7.03392 4.85471 7.20025 4.91734C7.36657 4.97997 7.5177 5.07177 7.645 5.1875L7.82375 5.35C8.36 5.8375 8.36 6.625 7.82375 7.1125C7.5625 7.3625 7.205 7.4875 6.86125 7.4875ZM16.5 3.8C15.7437 3.8 15.125 3.2875 15.125 2.6V2.5C15.125 1.8125 15.7437 1.25 16.5 1.25C17.2563 1.25 17.875 1.8125 17.875 2.5C17.875 3.1875 17.2563 3.8 16.5 3.8Z" fill="white"/>
</svg>
